<svg width="53" height="39" viewBox="0 0 53 39" fill="none" xmlns="http://www.w3.org/2000/svg">
<g clip-path="url(#clip0)">
<path d="M0 8.7C0 6.2 0.8 4.2 2.4 2.5C4.1 0.9 6.1 0 8.6 0C11.2 0 13.2 0.7 14.8 2.2L13.6 4C13 3.4 12.2 3 11.3 2.7C10.4 2.4 9.6 2.2 8.7 2.2C6.8 2.2 5.3 2.8 4.1 4C3 5.3 2.5 6.8 2.5 8.7C2.5 10.6 3.1 12.2 4.2 13.5C5.4 14.8 6.9 15.4 8.8 15.4C9.7 15.4 10.7 15.2 11.6 14.8C12.5 14.4 13.3 13.9 14 13.2L15.3 14.9C13.5 16.7 11.3 17.6 8.7 17.6C6.1 17.6 4 16.8 2.4 15.1C0.8 13.3 0 11.2 0 8.7Z" fill="white"/>
<path d="M18.3 17.3V0.299999H20.6V7.7H29.4V0.299999H31.8V17.2H29.4V9.8H20.6V17.2H18.3V17.3Z" fill="white"/>
<path d="M35.2 8.7C35.2 6.3 36 4.2 37.7 2.5C39.3 0.8 41.4 0 43.9 0C46.4 0 48.5 0.8 50.1 2.5C51.8 4.2 52.6 6.2 52.6 8.7C52.6 11.2 51.8 13.3 50.1 15C48.4 16.7 46.4 17.6 43.9 17.6C41.4 17.6 39.3 16.7 37.7 15C36 13.3 35.2 11.2 35.2 8.7ZM37.7 8.7C37.7 10.6 38.3 12.2 39.5 13.5C40.7 14.8 42.2 15.4 44 15.4C45.8 15.4 47.3 14.8 48.5 13.5C49.7 12.2 50.3 10.6 50.3 8.7C50.3 6.9 49.7 5.3 48.5 4.1C47.3 2.9 45.8 2.2 44 2.2C42.2 2.2 40.7 2.8 39.5 4.1C38.2 5.3 37.7 6.8 37.7 8.7Z" fill="white"/>
<path d="M0 29.7C0 27.2 0.8 25.2 2.4 23.5C4.1 21.9 6.1 21 8.6 21C11.2 21 13.2 21.7 14.8 23.2L13.6 25C13 24.4 12.2 24 11.3 23.7C10.4 23.4 9.5 23.2 8.7 23.2C6.8 23.2 5.3 23.8 4.1 25C3 26.2 2.4 27.8 2.4 29.6C2.4 31.5 3 33.1 4.1 34.4C5.3 35.7 6.8 36.3 8.7 36.3C9.6 36.3 10.6 36.1 11.5 35.7C12.4 35.3 13.2 34.8 13.9 34.1L15.2 35.8C13.4 37.6 11.2 38.5 8.6 38.5C6 38.5 3.9 37.7 2.3 36C0.8 34.3 0 32.2 0 29.7Z" fill="white"/>
<path d="M16.8 29.7C16.8 27.2 17.6 25.2 19.2 23.5C20.8 21.9 22.9 21 25.4 21C28 21 30 21.7 31.6 23.2L30.4 25C29.8 24.4 29 24 28.1 23.7C27.2 23.4 26.3 23.2 25.5 23.2C23.6 23.2 22.1 23.8 20.9 25C19.8 26.2 19.2 27.8 19.2 29.6C19.2 31.5 19.8 33.1 20.9 34.4C22.1 35.7 23.6 36.3 25.5 36.3C26.4 36.3 27.4 36.1 28.3 35.7C29.2 35.3 30 34.8 30.7 34.1L32 35.8C30.2 37.6 28 38.5 25.4 38.5C22.8 38.5 20.7 37.7 19.1 36C17.6 34.3 16.8 32.2 16.8 29.7Z" fill="white"/>
<path d="M33.6 29.7C33.6 27.3 34.4 25.2 36.1 23.5C37.7 21.8 39.8 21 42.3 21C44.8 21 46.9 21.8 48.5 23.5C50.1 25.2 51 27.2 51 29.7C51 32.2 50.2 34.3 48.5 36C46.8 37.7 44.8 38.6 42.3 38.6C39.8 38.6 37.7 37.7 36.1 36C34.4 34.3 33.6 32.2 33.6 29.7ZM36 29.7C36 31.6 36.6 33.2 37.8 34.5C39 35.8 40.5 36.4 42.3 36.4C44.1 36.4 45.6 35.8 46.8 34.5C48 33.2 48.6 31.6 48.6 29.7C48.6 27.9 48 26.3 46.8 25.1C45.6 23.9 44.1 23.2 42.3 23.2C40.5 23.2 39 23.8 37.8 25.1C36.6 26.3 36 27.8 36 29.7Z" fill="white"/>
</g>
<defs>
<clipPath id="clip0">
<rect width="52.6" height="38.6" fill="white"/>
</clipPath>
</defs>
</svg>
